<?xml version="1.0" encoding="utf-8"?>
<!-- Generator: Adobe Illustrator 24.0.1, SVG Export Plug-In . SVG Version: 6.00 Build 0)  -->
<svg version="1.1" id="Layer_1" xmlns="http://www.w3.org/2000/svg" xmlns:xlink="http://www.w3.org/1999/xlink" x="0px" y="0px"
	 viewBox="0 0 350 110.5" style="enable-background:new 0 0 350 110.5;" xml:space="preserve">
<style type="text/css">
	.st0{fill:#F1F2F2;}
</style>
<g>
	<path class="st0" d="M84.4,76.5c-0.3-0.3-0.5-0.6-0.7-0.9c-0.9-1.3-1.3-2.9-0.6-4.2c1.2-2.5,0.1-3.8-1.5-5.2
		c-0.7-0.6-1.3-1.3-1.9-1.9c-2.3-2.3-2.2-2.3-0.7-5.1c5-9.5,10-19,15-28.5c0.4-0.8,0.5-1.3-0.2-1.9c-1.9-1.8-3.8-3.6-5.5-5.5
		c-1.8-2-2.5,0-3.5,0.8c-1.4,1.1-0.5,1.8,0.4,2.5c3,2.8,3.2,6.7,0.3,9.6C74.8,47,64,57.7,53.2,68.4c-3,3-6.5,3.1-9.7,0.2
		c-1.9-1.7-3.7-3.5-5.4-5.3c-3-3.4-2.9-6.8,0.3-10c3.5-3.6,7.1-7.1,10.6-10.6c7.1-7.1,14.1-14.1,21.2-21.2c2.7-2.7,5.7-3.1,8.3-1.3
		c1.2,0.8,1.9,2.7,3.3,2.4c1.2-0.3,2.1-1.8,3.1-2.8c0.1-0.1,0.2-0.2,0.3-0.3c1.1-1.4,2-1.5,3.3-0.1c2.2,2.4,4.6,4.7,6.9,7
		c3.2,3.4,3.2,1.9,0.9,6.2c-4.8,9.2-9.6,18.3-14.5,27.4c-0.5,0.9-0.9,1.8,0.1,2.5c1.6,1.2,2.6,4.4,4.7,3.6c2.5-0.9,4.4-0.7,6.1,0.2
		c0.3,0.1,0.6,0.3,0.8,0.5L109,82.2c5.7-7.7,9-17.2,9-27.5c0-25.7-20.8-46.5-46.5-46.5S25.1,29.1,25.1,54.8s20.8,46.5,46.5,46.5
		c10.6,0,20.3-3.5,28.1-9.4L85,77.1C84.8,76.9,84.6,76.7,84.4,76.5z M51.2,89.5c-2.8-0.1-4.5-2.2-4.2-5.2c0.3-2.9,2.6-4.7,4-7
		c0.2-0.3,0.4-0.1,0.7,0c1.5,1,4.2,5.7,4.2,7.5C55.9,87.7,54,89.6,51.2,89.5z"/>
</g>
<g>
	<path class="st0" d="M265.3,71.5c1.2-0.4,2-0.6,3.2,0.3c1.8,1.5,5.4,1.1,7.1-0.4c2.2-2,2.7-4.5,1.4-7c-1.3-2.5-3.5-3.7-6-3.3
		c-2.7,0.4-4.5,2.2-5.1,5c-0.2,0.8-0.1,1.5-1.2,1.9c-10.1,3-20.3,5.4-31.2,1.8c0.5,1.5,1.1,3,1.7,4.4c0.3,0.1,0.6,0.2,0.9,0.3
		C246.3,76.4,255.9,74.5,265.3,71.5z"/>
	<path class="st0" d="M231.8,62.7c3.1-6.6,6.3-13.2,9.4-19.7c-3.5,2.2-6.3,5-8.9,8c-0.4,0.5-0.8,1-1.1,1.5c0,0.7-0.1,1.5-0.1,2.3
		C231.2,57.5,231.4,60.1,231.8,62.7z"/>
	<path class="st0" d="M277.6,8.3c-22.7,0-41.7,16.3-45.7,37.9c2.8-2.9,5.5-5.4,8.6-7.5c2.5-1.7,4.8-3.3,5.7-6.4
		c0.1-0.4,0.3-0.9,0.8-0.8c0.3,0.1,0.5,0.6,0.7,1c0.8,2,2.1,3.9,3.4,5.6c4.8,6.2,10.7,11.1,17.2,15.3c8.3,5.4,17.2,9.5,27,11.4
		c2.5,0.5,5,0.2,7.7,0.4c-0.4,0.6-0.7,1-1,1.3c-8.4,11.1-16.9,22.2-25.3,33.4c-0.3,0.3-0.8,0.7-0.7,1.1c0.4,0,0.9,0,1.4,0
		c25.7,0,46.5-20.8,46.5-46.5S303.3,8.3,277.6,8.3z M308.9,57.5c-1.1-2.1-2.9-2.8-4.8-3.3c-8.4-2.1-16.9-2.3-25.5-1.8
		c-3.4,0.2-6.3-0.3-9.2-2.4c-6.3-4.5-12.4-9.3-16.8-15.8c-1.5-2.2-2.6-4.5-2.8-7.2c-0.2-3.8,2.3-6.9,7.2-7.3
		c4.2-0.4,8.3,0.5,12.3,1.7c11.2,3.5,21,9.5,29.7,17.3c3.9,3.4,7.3,7.2,9.4,12C309.4,52.8,309.9,54.9,308.9,57.5z"/>
</g>
<g>
	<path class="st0" d="M174.6,64.8c-6.7,0.2-12,5.5-12.1,12.2c-0.1,5,0,15.2,0,22.7c3.8,1,7.8,1.5,11.9,1.5c4.6,0,8.9-0.7,13.1-1.9
		c0-4.8,0-10.6,0-12.7h0c0-3.1,0.1-6.1,0-9.1C187.4,70.5,181.6,64.6,174.6,64.8z"/>
	<path class="st0" d="M195.7,40.4l12.1,0l0,9.9l9.8,8.4l-9.8,0l0,28.4c8.1-8.4,13.1-19.7,13.1-32.3c0-25.7-20.8-46.5-46.5-46.5
		c-25.7,0-46.5,20.8-46.5,46.5c0,13.2,5.5,25.1,14.3,33.5l0-29.7l-9.4,0l15.7-13.1c8-6.5,16-13,24-19.5c2.5-2,2.5-2,4.9-0.1
		L195.7,40.4z"/>
</g>
</svg>
